<svg width="80" height="80" viewBox="0 0 80 80" fill="none" xmlns="http://www.w3.org/2000/svg">
<circle cx="40" cy="40" r="40" fill="#FF5C00"/>
<path d="M58.6061 32.4272L21.3936 38.4798V48.7419H21.3978C21.3851 48.8992 21.5339 49.0533 21.8654 49.2412C22.6328 49.6761 32.2468 54.8209 33.0047 55.1935C33.9494 55.6569 34.5257 55.7139 35.3332 55.3117C35.994 54.9824 55.6379 44.5735 57.4281 43.6225C58.3391 43.138 58.6378 42.872 58.5882 42.6524H58.6072L58.6061 32.4272Z" fill="white"/>
<path d="M21.3936 38.48V48.7421H21.3978C21.3851 48.8994 21.5339 49.0535 21.8654 49.2414C22.6328 49.6763 32.2468 54.821 33.0047 55.1936C33.4607 55.4174 33.8291 55.5409 34.1806 55.5694V38.48H21.3936Z" fill="#D8D8D8"/>
<path d="M44.4585 25.9421C45.5943 25.3531 45.6334 25.2792 46.8325 25.9168C48.0316 26.5543 57.2255 31.4563 57.9021 31.8163C58.7613 32.2744 59.0759 32.4401 57.4281 33.3162C55.6379 34.2683 35.994 44.6772 35.3333 45.0055C34.5258 45.4076 33.9494 45.3506 33.0047 44.8872C32.2468 44.5157 22.6328 39.3709 21.8654 38.935C20.9999 38.4441 21.3566 38.1897 22.6771 37.4888L44.4585 25.9421Z" fill="white"/>
<path d="M32.8101 41.0881C34.9549 41.0881 36.6935 40.2185 36.6935 39.1458C36.6935 38.0732 34.9549 37.2036 32.8101 37.2036C30.6654 37.2036 28.9268 38.0732 28.9268 39.1458C28.9268 40.2185 30.6654 41.0881 32.8101 41.0881Z" fill="#EDEDED"/>
<path d="M33.2883 38.6634C31.6321 38.1188 29.7501 38.2739 28.9521 39.0213C28.9468 39.0635 28.9268 39.1036 28.9268 39.1458C28.9268 40.2183 30.6653 41.0881 32.8101 41.0881C33.9322 41.0881 34.935 40.8463 35.6433 40.4663C35.2918 39.7359 34.4969 39.0603 33.2883 38.6634Z" fill="#DDDDDD"/>
<path d="M39.9996 37.339C42.1443 37.339 43.883 36.4695 43.883 35.3968C43.883 34.3242 42.1443 33.4546 39.9996 33.4546C37.8549 33.4546 36.1162 34.3242 36.1162 35.3968C36.1162 36.4695 37.8549 37.339 39.9996 37.339Z" fill="#EDEDED"/>
<path d="M40.4778 34.9144C38.8216 34.3698 36.9395 34.5249 36.1415 35.2723C36.1363 35.3145 36.1162 35.3546 36.1162 35.3968C36.1162 36.4693 37.8547 37.339 39.9996 37.339C41.1217 37.339 42.1244 37.0973 42.8327 36.7173C42.4812 35.9869 41.6864 35.3113 40.4778 34.9144Z" fill="#DDDDDD"/>
<path d="M47.1891 33.5895C49.3338 33.5895 51.0724 32.72 51.0724 31.6473C51.0724 30.5746 49.3338 29.7051 47.1891 29.7051C45.0443 29.7051 43.3057 30.5746 43.3057 31.6473C43.3057 32.72 45.0443 33.5895 47.1891 33.5895Z" fill="#EDEDED"/>
<path d="M47.6672 31.1649C46.0111 30.6202 44.129 30.7754 43.331 31.5227C43.3257 31.565 43.3057 31.6051 43.3057 31.6473C43.3057 32.7197 45.0442 33.5895 47.1891 33.5895C48.3111 33.5895 49.3128 33.3478 50.0222 32.9678C49.6707 32.2374 48.8758 31.5618 47.6672 31.1649Z" fill="#DDDDDD"/>
</svg>
