<svg width="30" height="30" viewBox="0 0 30 30" fill="none" xmlns="http://www.w3.org/2000/svg">
<path d="M14.9997 29.1665C11.2414 29.1699 7.6361 27.6785 4.9786 25.021C2.3211 22.3635 0.829632 18.7581 0.833014 14.9999V14.7165C0.94888 9.03884 4.4424 3.97842 9.71036 1.85753C14.9783 -0.263353 21.0036 0.964795 25.0212 4.97837C29.0763 9.03015 30.29 15.1264 28.0958 20.4223C25.9017 25.7183 20.7322 29.1699 14.9997 29.1665ZM14.9997 16.9974L18.6689 20.6665L20.6664 18.669L16.9972 14.9999L20.6664 11.3307L18.6689 9.3332L14.9997 13.0024L11.3305 9.3332L9.33302 11.3307L13.0022 14.9999L9.33302 18.669L11.3305 20.6665L14.9997 16.9988V16.9974Z" fill="#CD2525"/>
</svg>
