<svg width="104" height="58" viewBox="0 0 104 58" fill="none" xmlns="http://www.w3.org/2000/svg">
<mask id="path-1-inside-1_6706_14776" fill="white">
<path d="M9.74424 42.7553L0 39.7724L10.142 42.1587L20.4828 45.5394L9.74424 42.7553Z"/>
</mask>
<path d="M9.74424 42.7553L0 39.7724L10.142 42.1587L20.4828 45.5394L9.74424 42.7553Z" fill="black"/>
<path d="M0 39.7724L0.229039 38.799L-0.292714 40.7286L0 39.7724ZM9.74424 42.7553L9.45153 43.7115L9.47228 43.7179L9.49328 43.7233L9.74424 42.7553ZM20.4828 45.5394L20.2318 46.5074L20.7935 44.5889L20.4828 45.5394ZM10.142 42.1587L10.4527 41.2082L10.4123 41.1951L10.371 41.1853L10.142 42.1587ZM-0.292714 40.7286L9.45153 43.7115L10.037 41.7991L0.292714 38.8162L-0.292714 40.7286ZM9.49328 43.7233L20.2318 46.5074L20.7338 44.5714L9.99521 41.7873L9.49328 43.7233ZM20.7935 44.5889L10.4527 41.2082L9.83123 43.1092L20.1721 46.4899L20.7935 44.5889ZM10.371 41.1853L0.229039 38.799L-0.229039 40.7458L9.91293 43.1322L10.371 41.1853Z" fill="#FF784E" mask="url(#path-1-inside-1_6706_14776)"/>
<mask id="path-3-inside-2_6706_14776" fill="white">
<path d="M12.5196 31.6819L3.89746 26.2498L13.0597 31.2103L22.1534 37.1825L12.5196 31.6819Z"/>
</mask>
<path d="M12.5196 31.6819L3.89746 26.2498L13.0597 31.2103L22.1534 37.1825L12.5196 31.6819Z" fill="black"/>
<path d="M3.89746 26.2498L4.37357 25.3704L3.36442 27.0959L3.89746 26.2498ZM12.5196 31.6819L11.9865 32.5279L12.0049 32.5395L12.0238 32.5503L12.5196 31.6819ZM22.1534 37.1825L21.6576 38.0509L22.7023 36.3467L22.1534 37.1825ZM13.0597 31.2103L13.6087 30.3745L13.5732 30.3512L13.5359 30.3309L13.0597 31.2103ZM3.36442 27.0959L11.9865 32.5279L13.0526 30.8358L4.43051 25.4037L3.36442 27.0959ZM12.0238 32.5503L21.6576 38.0509L22.6492 36.3141L13.0154 30.8134L12.0238 32.5503ZM22.7023 36.3467L13.6087 30.3745L12.5108 32.0462L21.6045 38.0184L22.7023 36.3467ZM13.5359 30.3309L4.37357 25.3704L3.42136 27.1292L12.5836 32.0897L13.5359 30.3309Z" fill="#FF784E" mask="url(#path-3-inside-2_6706_14776)"/>
<mask id="path-5-inside-3_6706_14776" fill="white">
<path d="M92.2655 30.8776L101.004 25.6346L91.7358 30.3944L82.5143 36.1672L92.2655 30.8776Z"/>
</mask>
<path d="M92.2655 30.8776L101.004 25.6346L91.7358 30.3944L82.5143 36.1672L92.2655 30.8776Z" fill="black"/>
<path d="M101.004 25.6346L100.547 24.745L101.518 26.4921L101.004 25.6346ZM92.2655 30.8776L92.78 31.7351L92.7614 31.7463L92.7424 31.7566L92.2655 30.8776ZM82.5143 36.1672L82.9911 37.0462L81.9836 35.3196L82.5143 36.1672ZM91.7358 30.3944L91.2052 29.5468L91.2412 29.5243L91.2789 29.5049L91.7358 30.3944ZM101.518 26.4921L92.78 31.7351L91.751 30.0201L100.489 24.7771L101.518 26.4921ZM92.7424 31.7566L82.9911 37.0462L82.0374 35.2882L91.7887 29.9986L92.7424 31.7566ZM81.9836 35.3196L91.2052 29.5468L92.2664 31.242L83.0449 37.0148L81.9836 35.3196ZM91.2789 29.5049L100.547 24.745L101.461 26.5241L92.1926 31.284L91.2789 29.5049Z" fill="#FF784E" mask="url(#path-5-inside-3_6706_14776)"/>
<mask id="path-7-inside-4_6706_14776" fill="white">
<path d="M93.8571 42.0828L103.625 39.1782L93.4642 41.483L83.0966 44.7806L93.8571 42.0828Z"/>
</mask>
<path d="M93.8571 42.0828L103.625 39.1782L93.4642 41.483L83.0966 44.7806L93.8571 42.0828Z" fill="black"/>
<path d="M103.625 39.1782L103.404 38.2029L103.91 40.1367L103.625 39.1782ZM93.8571 42.0828L94.1422 43.0413L94.1214 43.0475L94.1003 43.0528L93.8571 42.0828ZM83.0966 44.7806L83.3398 45.7506L82.7935 43.8276L83.0966 44.7806ZM93.4642 41.483L93.1611 40.5301L93.2016 40.5172L93.243 40.5078L93.4642 41.483ZM103.91 40.1367L94.1422 43.0413L93.5721 41.1243L103.34 38.2196L103.91 40.1367ZM94.1003 43.0528L83.3398 45.7506L82.8534 43.8106L93.6139 41.1128L94.1003 43.0528ZM82.7935 43.8276L93.1611 40.5301L93.7673 42.436L83.3997 45.7336L82.7935 43.8276ZM93.243 40.5078L103.404 38.2029L103.846 40.1534L93.6854 42.4583L93.243 40.5078Z" fill="#FF784E" mask="url(#path-7-inside-4_6706_14776)"/>
<mask id="path-9-inside-5_6706_14776" fill="white">
<path d="M85.8547 19.4826L89.4414 15.7307L85.5295 19.3165L81.7768 23.3937L85.8547 19.4826Z"/>
</mask>
<path d="M85.8547 19.4826L89.4414 15.7307L85.5295 19.3165L81.7768 23.3937L85.8547 19.4826Z" fill="black"/>
<path d="M89.4414 15.7307L88.7657 14.9935L90.1642 16.4217L89.4414 15.7307ZM85.8547 19.4826L86.5776 20.1736L86.5626 20.1893L86.5469 20.2043L85.8547 19.4826ZM81.7768 23.3937L82.469 24.1154L81.041 22.7164L81.7768 23.3937ZM85.5295 19.3165L84.7937 18.6393L84.8225 18.6081L84.8538 18.5794L85.5295 19.3165ZM90.1642 16.4217L86.5776 20.1736L85.1319 18.7916L88.7186 15.0397L90.1642 16.4217ZM86.5469 20.2043L82.469 24.1154L81.0846 22.6719L85.1626 18.7608L86.5469 20.2043ZM81.041 22.7164L84.7937 18.6393L86.2652 19.9938L82.5126 24.0709L81.041 22.7164ZM84.8538 18.5794L88.7657 14.9935L90.1171 16.4679L86.2052 20.0537L84.8538 18.5794Z" fill="#FF784E" mask="url(#path-9-inside-5_6706_14776)"/>
<mask id="path-11-inside-6_6706_14776" fill="white">
<path d="M75.7877 11.6967L78.3076 7.15906L75.4309 11.6184L72.8327 16.5128L75.7877 11.6967Z"/>
</mask>
<path d="M75.7877 11.6967L78.3076 7.15906L75.4309 11.6184L72.8327 16.5128L75.7877 11.6967Z" fill="black"/>
<path d="M78.3076 7.15906L77.4673 6.61698L79.1819 7.64456L78.3076 7.15906ZM75.7877 11.6967L76.6619 12.1822L76.6514 12.2012L76.64 12.2197L75.7877 11.6967ZM72.8327 16.5128L73.6851 17.0358L71.9494 16.0439L72.8327 16.5128ZM75.4309 11.6184L74.5477 11.1496L74.5676 11.112L74.5906 11.0764L75.4309 11.6184ZM79.1819 7.64456L76.6619 12.1822L74.9134 11.2112L77.4334 6.67356L79.1819 7.64456ZM76.64 12.2197L73.6851 17.0358L71.9804 15.9898L74.9353 11.1737L76.64 12.2197ZM71.9494 16.0439L74.5477 11.1496L76.3142 12.0873L73.716 16.9817L71.9494 16.0439ZM74.5906 11.0764L77.4673 6.61698L79.1479 7.70114L76.2713 12.1605L74.5906 11.0764Z" fill="#FF784E" mask="url(#path-11-inside-6_6706_14776)"/>
<mask id="path-13-inside-7_6706_14776" fill="white">
<path d="M63.9496 7.80895L65.25 2.78406L63.5847 7.82272L62.2981 13.2125L63.9496 7.80895Z"/>
</mask>
<path d="M63.9496 7.80895L65.25 2.78406L63.5847 7.82272L62.2981 13.2125L63.9496 7.80895Z" fill="black"/>
<path d="M65.25 2.78406L64.3005 2.47024L66.2181 3.03459L65.25 2.78406ZM63.9496 7.80895L64.9177 8.05949L64.9123 8.08049L64.9059 8.10124L63.9496 7.80895ZM62.2981 13.2125L63.2544 13.5048L61.3254 12.9804L62.2981 13.2125ZM63.5847 7.82272L62.612 7.59053L62.6219 7.54922L62.6352 7.5089L63.5847 7.82272ZM66.2181 3.03459L64.9177 8.05949L62.9815 7.55842L64.2819 2.53352L66.2181 3.03459ZM64.9059 8.10124L63.2544 13.5048L61.3417 12.9203L62.9933 7.51666L64.9059 8.10124ZM61.3254 12.9804L62.612 7.59053L64.5574 8.05491L63.2707 13.4447L61.3254 12.9804ZM62.6352 7.5089L64.3005 2.47024L66.1995 3.09787L64.5342 8.13653L62.6352 7.5089Z" fill="#FF784E" mask="url(#path-13-inside-7_6706_14776)"/>
<mask id="path-15-inside-8_6706_14776" fill="white">
<path d="M51.4642 5.18903L51.3438 0L51.1169 5.30188L51.3503 10.8382L51.4642 5.18903Z"/>
</mask>
<path d="M51.4642 5.18903L51.3438 0L51.1169 5.30188L51.3503 10.8382L51.4642 5.18903Z" fill="black"/>
<path d="M51.3438 0L50.3447 -0.0427444L52.3435 -0.023214L51.3438 0ZM51.4642 5.18903L52.464 5.16582L52.4645 5.18751L52.464 5.2092L51.4642 5.18903ZM51.3503 10.8382L52.3501 10.8584L50.3511 10.8803L51.3503 10.8382ZM51.1169 5.30188L50.1178 5.34399L50.116 5.30156L50.1178 5.25914L51.1169 5.30188ZM52.3435 -0.023214L52.464 5.16582L50.4645 5.21224L50.344 0.023214L52.3435 -0.023214ZM52.464 5.2092L52.3501 10.8584L50.3505 10.8181L50.4644 5.16886L52.464 5.2092ZM50.3511 10.8803L50.1178 5.34399L52.116 5.25977L52.3494 10.7961L50.3511 10.8803ZM50.1178 5.25914L50.3447 -0.0427444L52.3428 0.0427444L52.116 5.34462L50.1178 5.25914Z" fill="#FF784E" mask="url(#path-15-inside-8_6706_14776)"/>
<mask id="path-17-inside-9_6706_14776" fill="white">
<path d="M39.4238 7.38183L38.0146 2.38635L39.1155 7.57763L40.7205 12.8814L39.4238 7.38183Z"/>
</mask>
<path d="M39.4238 7.38183L38.0146 2.38635L39.1155 7.57763L40.7205 12.8814L39.4238 7.38183Z" fill="black"/>
<path d="M38.0146 2.38635L37.0364 2.59381L38.9771 2.11486L38.0146 2.38635ZM39.4238 7.38183L40.3863 7.11034L40.3921 7.13122L40.3971 7.15234L39.4238 7.38183ZM40.7205 12.8814L41.6938 12.6519L39.7634 13.171L40.7205 12.8814ZM39.1155 7.57763L38.1584 7.86727L38.1461 7.82663L38.1373 7.78509L39.1155 7.57763ZM38.9771 2.11486L40.3863 7.11034L38.4614 7.65332L37.0522 2.65785L38.9771 2.11486ZM40.3971 7.15234L41.6938 12.6519L39.7472 13.1109L38.4505 7.61132L40.3971 7.15234ZM39.7634 13.171L38.1584 7.86727L40.0727 7.288L41.6777 12.5917L39.7634 13.171ZM38.1373 7.78509L37.0364 2.59381L38.9929 2.1789L40.0938 7.37018L38.1373 7.78509Z" fill="#FF784E" mask="url(#path-17-inside-9_6706_14776)"/>
<mask id="path-19-inside-10_6706_14776" fill="white">
<path d="M28.2229 12.3146L25.6133 7.82788L27.9732 12.581L30.8493 17.3174L28.2229 12.3146Z"/>
</mask>
<path d="M28.2229 12.3146L25.6133 7.82788L27.9732 12.581L30.8493 17.3174L28.2229 12.3146Z" fill="black"/>
<path d="M25.6133 7.82788L24.7176 8.27258L26.4777 7.3251L25.6133 7.82788ZM28.2229 12.3146L29.0873 11.8118L29.0983 11.8305L29.1083 11.8497L28.2229 12.3146ZM30.8493 17.3174L31.7347 16.8526L29.9945 17.8365L30.8493 17.3174ZM27.9732 12.581L27.1184 13.1L27.0964 13.0637L27.0775 13.0257L27.9732 12.581ZM26.4777 7.3251L29.0873 11.8118L27.3585 12.8173L24.7489 8.33066L26.4777 7.3251ZM29.1083 11.8497L31.7347 16.8526L29.9639 17.7822L27.3375 12.7794L29.1083 11.8497ZM29.9945 17.8365L27.1184 13.1L28.8279 12.062L31.704 16.7984L29.9945 17.8365ZM27.0775 13.0257L24.7176 8.27258L26.509 7.38318L28.8689 12.1363L27.0775 13.0257Z" fill="#FF784E" mask="url(#path-19-inside-10_6706_14776)"/>
<mask id="path-21-inside-11_6706_14776" fill="white">
<path d="M17.4563 19.2722L13.5225 15.8861L17.3074 19.6057L21.5748 23.1406L17.4563 19.2722Z"/>
</mask>
<path d="M17.4563 19.2722L13.5225 15.8861L17.3074 19.6057L21.5748 23.1406L17.4563 19.2722Z" fill="black"/>
<path d="M13.5225 15.8861L12.8215 16.5994L14.1748 15.1282L13.5225 15.8861ZM17.4563 19.2722L18.1087 18.5143L18.1251 18.5285L18.1409 18.5433L17.4563 19.2722ZM21.5748 23.1406L22.2594 22.4117L20.9368 23.9107L21.5748 23.1406ZM17.3074 19.6057L16.6695 20.3758L16.6368 20.3487L16.6065 20.3189L17.3074 19.6057ZM14.1748 15.1282L18.1087 18.5143L16.8039 20.0301L12.8701 16.644L14.1748 15.1282ZM18.1409 18.5433L22.2594 22.4117L20.8901 23.8695L16.7717 20.0011L18.1409 18.5433ZM20.9368 23.9107L16.6695 20.3758L17.9454 18.8356L22.2127 22.3705L20.9368 23.9107ZM16.6065 20.3189L12.8215 16.5994L14.2234 15.1729L18.0084 18.8924L16.6065 20.3189Z" fill="#FF784E" mask="url(#path-21-inside-11_6706_14776)"/>
<path d="M95.852 57.6706H7.3584L24.2617 55.6819V54.091L36.5911 51.5058L37.3866 52.3013V54.8865L38.5798 54.091V50.9093L52.3012 48.1252L57.4717 49.1195L58.466 50.1138V54.8865L59.6591 54.091V49.5172L73.3806 52.8979V55.8808L74.5738 54.8865V52.8979L81.1362 54.4888V55.8808L95.852 57.6706Z" fill="#C7C7C7"/>
<path d="M24.0625 37.8262V33.1467C24.0625 32.2448 24.6661 31.4544 25.5363 31.2171L34.6612 28.7285C35.9334 28.3815 37.1874 29.3393 37.1874 30.6581V35.6141C37.1874 36.5372 36.5557 37.3404 35.6586 37.5578L26.5337 39.7699C25.2749 40.0751 24.0625 39.1215 24.0625 37.8262Z" fill="#F8944C"/>
<path d="M38.5791 34.2643V29.1596C38.5791 28.2623 39.1767 27.4749 40.0409 27.2334L52.1017 23.8635L56.8241 25.2345C57.6786 25.4826 58.2665 26.2654 58.2665 27.1552V32.7342C58.2665 34.0665 56.9883 35.0264 55.7088 34.6549L52.1017 33.6077L41.0372 36.2111C39.7818 36.5065 38.5791 35.554 38.5791 34.2643Z" fill="#F58534"/>
<path d="M65.8232 23.5258V18.4211C65.8232 17.5238 65.2256 16.7363 64.3615 16.4949L52.3006 13.1249L47.5783 14.4959C46.7237 14.744 46.1359 15.5268 46.1359 16.4166V21.9957C46.1359 23.328 47.414 24.2879 48.6935 23.9164L52.3006 22.8692L63.3652 25.4726C64.6206 25.768 65.8232 24.8155 65.8232 23.5258Z" fill="#F8944C"/>
<path d="M65.4258 45.4006V40.2959C65.4258 39.3986 64.8282 38.6112 63.964 38.3697L51.9032 34.9998L47.1808 36.3708C46.3263 36.6188 45.7384 37.4016 45.7384 38.2915V43.8705C45.7384 45.2028 47.0166 46.1627 48.2961 45.7912L51.9032 44.744L62.9677 47.3474C64.2231 47.6428 65.4258 46.6903 65.4258 45.4006Z" fill="#F8944C"/>
<path d="M23.0684 27.5594V23.0073C23.0684 22.1406 23.6266 21.3725 24.451 21.1049L26.8146 20.3379C28.1067 19.9186 29.4319 20.8818 29.4319 22.2402V26.8691C29.4319 27.7577 28.8456 28.5397 27.9927 28.7889L25.6291 29.4792C24.3489 29.8531 23.0684 28.893 23.0684 27.5594Z" fill="#F58534"/>
<path d="M81.1357 37.9002V33.3481C81.1357 32.4814 80.5775 31.7133 79.7531 31.4458L77.3895 30.6787C76.0974 30.2594 74.7722 31.2226 74.7722 32.5811V37.2099C74.7722 38.0985 75.3585 38.8805 76.2114 39.1297L78.575 39.82C79.8552 40.1939 81.1357 39.2339 81.1357 37.9002Z" fill="#F58534"/>
<path d="M23.0684 48.6387V44.0866C23.0684 43.2199 23.6266 42.4518 24.451 42.1843L26.8146 41.4172C28.1067 40.9979 29.4319 41.9612 29.4319 43.3196V47.9484C29.4319 48.837 28.8456 49.6191 27.9927 49.8682L25.6291 50.5585C24.3489 50.9324 23.0684 49.9724 23.0684 48.6387Z" fill="#F58534"/>
<path d="M31.4199 25.0515V20.5679C31.4199 19.6899 31.9926 18.9146 32.8318 18.6564L41.7578 15.9099C43.0439 15.5142 44.346 16.4758 44.346 17.8214V19.8862V22.717C44.346 23.6267 43.7321 24.4217 42.852 24.6519L33.926 26.9864C32.6585 27.3179 31.4199 26.3616 31.4199 25.0515Z" fill="#F58534"/>
<path d="M79.9424 26.8602V22.3664C79.9424 21.4842 79.3644 20.7063 78.5199 20.4515L69.9916 17.8795C68.7077 17.4923 67.4141 18.4534 67.4141 19.7943V24.6943C67.4141 25.6092 68.035 26.4075 68.9218 26.6327L77.4501 28.7987C78.7142 29.1197 79.9424 28.1644 79.9424 26.8602Z" fill="#F8944C"/>
<path d="M72.9824 36.0273V31.5273C72.9824 30.6388 72.3963 29.8569 71.5436 29.6076L62.6175 26.9985C61.3373 26.6242 60.0564 27.5843 60.0564 28.9181V33.8301C60.0564 34.7505 60.6846 35.5521 61.5783 35.7721L70.5044 37.9693C71.7649 38.2796 72.9824 37.3254 72.9824 36.0273Z" fill="#F58534"/>
<path d="M31.4199 46.3681V41.9601C31.4199 41.0288 32.0627 40.2207 32.9702 40.0113L41.8962 37.9514C43.1495 37.6622 44.346 38.614 44.346 39.9002V41.5622V44.1709C44.346 45.0914 43.7178 45.893 42.824 46.113L33.898 48.3101C32.6374 48.6204 31.4199 47.6663 31.4199 46.3681Z" fill="#F58534"/>
<path d="M80.1416 48.3472V43.8958C80.1416 42.9889 79.5315 42.1956 78.655 41.9628L69.9279 39.6446C68.6586 39.3075 67.4144 40.2643 67.4144 41.5776V46.1654C67.4144 47.0831 68.039 47.8831 68.9294 48.1057L77.6565 50.2874C78.9188 50.603 80.1416 49.6483 80.1416 48.3472Z" fill="#F8944C"/>
</svg>
