<svg width="98" height="54" viewBox="0 0 98 54" fill="none" xmlns="http://www.w3.org/2000/svg">
<mask id="path-1-inside-1_6870_667" fill="white">
<path d="M9.12405 40.034L0 37.241L9.49646 39.4754L19.1791 42.6409L9.12405 40.034Z"/>
</mask>
<path d="M9.12405 40.034L0 37.241L9.49646 39.4754L19.1791 42.6409L9.12405 40.034Z" fill="black"/>
<path d="M0 37.241L2.29039 27.5068L-2.92714 46.803L0 37.241ZM9.12405 40.034L6.19691 49.596L6.40439 49.6596L6.61443 49.714L9.12405 40.034ZM19.1791 42.6409L16.6695 52.3209L22.2865 33.136L19.1791 42.6409ZM9.49646 39.4754L12.6039 29.9705L12.2002 29.8385L11.7869 29.7413L9.49646 39.4754ZM-2.92714 46.803L6.19691 49.596L12.0512 30.472L2.92714 27.679L-2.92714 46.803ZM6.61443 49.714L16.6695 52.3209L21.6887 32.9609L11.6337 30.3541L6.61443 49.714ZM22.2865 33.136L12.6039 29.9705L6.38907 48.9804L16.0717 52.1459L22.2865 33.136ZM11.7869 29.7413L2.29039 27.5068L-2.29039 46.9751L7.20607 49.2096L11.7869 29.7413Z" fill="white" mask="url(#path-1-inside-1_6870_667)"/>
<mask id="path-3-inside-2_6870_667" fill="white">
<path d="M11.7228 29.6654L3.64941 24.5791L12.2285 29.2239L20.7434 34.816L11.7228 29.6654Z"/>
</mask>
<path d="M11.7228 29.6654L3.64941 24.5791L12.2285 29.2239L20.7434 34.816L11.7228 29.6654Z" fill="black"/>
<path d="M3.64941 24.5791L8.41047 15.7852L-1.68103 33.04L3.64941 24.5791ZM11.7228 29.6654L6.39233 38.1263L6.57592 38.2419L6.76435 38.3495L11.7228 29.6654ZM20.7434 34.816L15.785 43.5001L26.2329 26.4574L20.7434 34.816ZM12.2285 29.2239L17.718 20.8653L17.363 20.6322L16.9896 20.43L12.2285 29.2239ZM-1.68103 33.04L6.39233 38.1263L17.0532 21.2045L8.97986 16.1182L-1.68103 33.04ZM6.76435 38.3495L15.785 43.5001L25.7018 26.1318L16.6812 20.9813L6.76435 38.3495ZM26.2329 26.4574L17.718 20.8653L6.73911 37.5825L15.254 43.1746L26.2329 26.4574ZM16.9896 20.43L8.41047 15.7852L-1.11164 33.373L7.46749 38.0178L16.9896 20.43Z" fill="white" mask="url(#path-3-inside-2_6870_667)"/>
<mask id="path-5-inside-3_6870_667" fill="white">
<path d="M86.3935 28.9124L94.5757 24.0031L85.8975 28.4599L77.2628 33.8653L86.3935 28.9124Z"/>
</mask>
<path d="M86.3935 28.9124L94.5757 24.0031L85.8975 28.4599L77.2628 33.8653L86.3935 28.9124Z" fill="black"/>
<path d="M94.5757 24.0031L90.0072 15.1076L99.7206 32.578L94.5757 24.0031ZM86.3935 28.9124L91.5385 37.4873L91.3524 37.5989L91.1617 37.7024L86.3935 28.9124ZM77.2628 33.8653L82.031 42.6553L71.9567 25.3892L77.2628 33.8653ZM85.8975 28.4599L80.5913 19.9838L80.9512 19.7585L81.329 19.5645L85.8975 28.4599ZM99.7206 32.578L91.5385 37.4873L81.2485 20.3374L89.4307 15.4281L99.7206 32.578ZM91.1617 37.7024L82.031 42.6553L72.4947 25.0753L81.6253 20.1223L91.1617 37.7024ZM71.9567 25.3892L80.5913 19.9838L91.2036 36.9361L82.569 42.3414L71.9567 25.3892ZM81.329 19.5645L90.0072 15.1076L99.1441 32.8985L90.4659 37.3554L81.329 19.5645Z" fill="white" mask="url(#path-5-inside-3_6870_667)"/>
<mask id="path-7-inside-4_6870_667" fill="white">
<path d="M87.8836 39.4043L97.0298 36.6846L87.5157 38.8427L77.8079 41.9304L87.8836 39.4043Z"/>
</mask>
<path d="M87.8836 39.4043L97.0298 36.6846L87.5157 38.8427L77.8079 41.9304L87.8836 39.4043Z" fill="black"/>
<path d="M97.0298 36.6846L94.8176 26.9323L99.8801 46.2698L97.0298 36.6846ZM87.8836 39.4043L90.7339 48.9895L90.5259 49.0514L90.3155 49.1041L87.8836 39.4043ZM77.8079 41.9304L80.2398 51.6302L74.7769 32.4008L77.8079 41.9304ZM87.5157 38.8427L84.4847 29.3132L84.8894 29.1844L85.3035 29.0905L87.5157 38.8427ZM99.8801 46.2698L90.7339 48.9895L85.0333 29.8191L94.1795 27.0994L99.8801 46.2698ZM90.3155 49.1041L80.2398 51.6302L75.3761 32.2306L85.4518 29.7045L90.3155 49.1041ZM74.7769 32.4008L84.4847 29.3132L90.5467 48.3723L80.8389 51.46L74.7769 32.4008ZM85.3035 29.0905L94.8176 26.9323L99.242 46.4368L89.7279 48.595L85.3035 29.0905Z" fill="white" mask="url(#path-7-inside-4_6870_667)"/>
<mask id="path-9-inside-5_6870_667" fill="white">
<path d="M80.3902 18.2426L83.7485 14.7295L80.0856 18.0871L76.5717 21.9047L80.3902 18.2426Z"/>
</mask>
<path d="M80.3902 18.2426L83.7485 14.7295L80.0856 18.0871L76.5717 21.9047L80.3902 18.2426Z" fill="black"/>
<path d="M83.7485 14.7295L76.9914 7.35784L90.9769 21.6396L83.7485 14.7295ZM80.3902 18.2426L87.6186 25.1527L87.4686 25.3095L87.312 25.4597L80.3902 18.2426ZM76.5717 21.9047L83.4936 29.1219L69.214 15.1325L76.5717 21.9047ZM80.0856 18.0871L72.7278 11.3148L73.0154 11.0024L73.3285 10.7154L80.0856 18.0871ZM90.9769 21.6396L87.6186 25.1527L73.1617 11.3324L76.5201 7.81935L90.9769 21.6396ZM87.312 25.4597L83.4936 29.1219L69.6499 14.6875L73.4683 11.0254L87.312 25.4597ZM69.214 15.1325L72.7278 11.3148L87.4433 24.8593L83.9295 28.677L69.214 15.1325ZM73.3285 10.7154L76.9914 7.35784L90.5057 22.1011L86.8427 25.4587L73.3285 10.7154Z" fill="white" mask="url(#path-9-inside-5_6870_667)"/>
<mask id="path-11-inside-6_6870_667" fill="white">
<path d="M70.9642 10.9523L73.3237 6.70349L70.6301 10.8791L68.1973 15.4619L70.9642 10.9523Z"/>
</mask>
<path d="M70.9642 10.9523L73.3237 6.70349L70.6301 10.8791L68.1973 15.4619L70.9642 10.9523Z" fill="black"/>
<path d="M73.3237 6.70349L64.9205 1.28269L82.0661 11.5585L73.3237 6.70349ZM70.9642 10.9523L79.7065 15.8074L79.6012 15.9971L79.4877 16.182L70.9642 10.9523ZM68.1973 15.4619L76.7208 20.6916L59.3647 10.773L68.1973 15.4619ZM70.6301 10.8791L61.7976 6.19017L61.9967 5.81509L62.2269 5.45824L70.6301 10.8791ZM82.0661 11.5585L79.7065 15.8074L62.2218 6.09732L64.5814 1.84847L82.0661 11.5585ZM79.4877 16.182L76.7208 20.6916L59.6738 10.2322L62.4406 5.72267L79.4877 16.182ZM59.3647 10.773L61.7976 6.19017L79.4627 15.5679L77.0299 20.1508L59.3647 10.773ZM62.2269 5.45824L64.9205 1.28269L81.727 12.1243L79.0334 16.2999L62.2269 5.45824Z" fill="white" mask="url(#path-11-inside-6_6870_667)"/>
<mask id="path-13-inside-7_6870_667" fill="white">
<path d="M59.8796 7.31188L61.0972 2.60681L59.5378 7.32478L58.3331 12.3716L59.8796 7.31188Z"/>
</mask>
<path d="M59.8796 7.31188L61.0972 2.60681L59.5378 7.32478L58.3331 12.3716L59.8796 7.31188Z" fill="black"/>
<path d="M61.0972 2.60681L51.6023 -0.531317L70.7782 5.11216L61.0972 2.60681ZM59.8796 7.31188L69.5606 9.81723L69.5063 10.0273L69.4428 10.2348L59.8796 7.31188ZM58.3331 12.3716L67.8964 15.2945L48.6064 10.0497L58.3331 12.3716ZM59.5378 7.32478L49.8111 5.0029L49.9097 4.58985L50.043 4.18665L59.5378 7.32478ZM70.7782 5.11216L69.5606 9.81723L50.1985 4.80654L51.4161 0.101464L70.7782 5.11216ZM69.4428 10.2348L67.8964 15.2945L48.7698 9.44864L50.3163 4.38896L69.4428 10.2348ZM48.6064 10.0497L49.8111 5.0029L69.2646 9.64665L68.0598 14.6934L48.6064 10.0497ZM50.043 4.18665L51.6023 -0.531317L70.592 5.74494L69.0327 10.4629L50.043 4.18665Z" fill="white" mask="url(#path-13-inside-7_6870_667)"/>
<mask id="path-15-inside-8_6870_667" fill="white">
<path d="M48.1885 4.85876L48.0757 0L47.8633 4.96443L48.0818 10.1484L48.1885 4.85876Z"/>
</mask>
<path d="M48.1885 4.85876L48.0757 0L47.8633 4.96443L48.0818 10.1484L48.1885 4.85876Z" fill="black"/>
<path d="M48.0757 0L38.0848 -0.427444L58.073 -0.23214L48.0757 0ZM48.1885 4.85876L58.1858 4.62662L58.1908 4.84355L58.1865 5.06049L48.1885 4.85876ZM48.0818 10.1484L58.0797 10.3501L38.0906 10.5695L48.0818 10.1484ZM47.8633 4.96443L37.8722 5.38553L37.8543 4.96125L37.8724 4.53699L47.8633 4.96443ZM58.073 -0.23214L58.1858 4.62662L38.1912 5.0909L38.0784 0.23214L58.073 -0.23214ZM58.1865 5.06049L58.0797 10.3501L38.0838 9.94668L38.1905 4.65704L58.1865 5.06049ZM38.0906 10.5695L37.8722 5.38553L57.8544 4.54333L58.0729 9.72731L38.0906 10.5695ZM37.8724 4.53699L38.0848 -0.427444L58.0665 0.427444L57.8541 5.39187L37.8724 4.53699Z" fill="white" mask="url(#path-15-inside-8_6870_667)"/>
<mask id="path-17-inside-9_6870_667" fill="white">
<path d="M36.9147 6.91203L35.5952 2.2345L36.626 7.09537L38.1289 12.0615L36.9147 6.91203Z"/>
</mask>
<path d="M36.9147 6.91203L35.5952 2.2345L36.626 7.09537L38.1289 12.0615L36.9147 6.91203Z" fill="black"/>
<path d="M35.5952 2.2345L25.8128 4.30903L45.2196 -0.480433L35.5952 2.2345ZM36.9147 6.91203L46.5391 4.1971L46.598 4.40593L46.6478 4.61712L36.9147 6.91203ZM38.1289 12.0615L47.862 9.76664L28.5575 14.9579L38.1289 12.0615ZM36.626 7.09537L27.0547 9.99176L26.9317 9.58531L26.8436 9.1699L36.626 7.09537ZM45.2196 -0.480433L46.5391 4.1971L27.2903 9.62696L25.9708 4.94943L45.2196 -0.480433ZM46.6478 4.61712L47.862 9.76664L28.3958 14.3564L27.1816 9.20693L46.6478 4.61712ZM28.5575 14.9579L27.0547 9.99176L46.1974 4.19897L47.7002 9.16515L28.5575 14.9579ZM26.8436 9.1699L25.8128 4.30903L45.3777 0.159968L46.4085 5.02084L26.8436 9.1699Z" fill="white" mask="url(#path-17-inside-9_6870_667)"/>
<mask id="path-19-inside-10_6870_667" fill="white">
<path d="M26.4265 11.5308L23.9829 7.32971L26.1926 11.7803L28.8857 16.2153L26.4265 11.5308Z"/>
</mask>
<path d="M26.4265 11.5308L23.9829 7.32971L26.1926 11.7803L28.8857 16.2153L26.4265 11.5308Z" fill="black"/>
<path d="M23.9829 7.32971L15.0261 11.7767L32.627 2.3019L23.9829 7.32971ZM26.4265 11.5308L35.0706 6.50301L35.1797 6.69058L35.2806 6.8827L26.4265 11.5308ZM28.8857 16.2153L37.7397 11.5672L20.3381 21.4056L28.8857 16.2153ZM26.1926 11.7803L17.6451 16.9706L17.4247 16.6077L17.2358 16.2273L26.1926 11.7803ZM32.627 2.3019L35.0706 6.50301L17.7823 16.5586L15.3388 12.3575L32.627 2.3019ZM35.2806 6.8827L37.7397 11.5672L20.0316 20.8634L17.5724 16.179L35.2806 6.8827ZM20.3381 21.4056L17.6451 16.9706L34.7402 6.58999L37.4332 11.025L20.3381 21.4056ZM17.2358 16.2273L15.0261 11.7767L32.9397 2.88271L35.1494 7.33331L17.2358 16.2273Z" fill="white" mask="url(#path-19-inside-10_6870_667)"/>
<mask id="path-21-inside-11_6870_667" fill="white">
<path d="M16.346 18.0456L12.6626 14.875L16.2067 18.3578L20.2024 21.6678L16.346 18.0456Z"/>
</mask>
<path d="M16.346 18.0456L12.6626 14.875L16.2067 18.3578L20.2024 21.6678L16.346 18.0456Z" fill="black"/>
<path d="M12.6626 14.875L5.65343 22.0074L19.1863 7.296L12.6626 14.875ZM16.346 18.0456L22.8698 10.4666L23.0342 10.6081L23.1924 10.7567L16.346 18.0456ZM20.2024 21.6678L27.0487 14.3789L13.8231 29.3687L20.2024 21.6678ZM16.2067 18.3578L9.82742 26.0588L9.50039 25.7879L9.19751 25.4903L16.2067 18.3578ZM19.1863 7.296L22.8698 10.4666L9.82233 25.6246L6.13889 22.454L19.1863 7.296ZM23.1924 10.7567L27.0487 14.3789L13.3561 28.9567L9.49972 25.3345L23.1924 10.7567ZM13.8231 29.3687L9.82742 26.0588L22.5859 10.6569L26.5817 13.9668L13.8231 29.3687ZM9.19751 25.4903L5.65343 22.0074L19.6718 7.74257L23.2159 11.2254L9.19751 25.4903Z" fill="white" mask="url(#path-21-inside-11_6870_667)"/>
<path d="M89.7509 54H6.88965L22.7171 52.1379V50.6483L34.2618 48.2276L35.0066 48.9724V51.3931L36.1239 50.6483V47.669L48.972 45.0621L53.8133 45.9932L54.7444 46.9242V51.3931L55.8616 50.6483V46.3656L68.7098 49.5311V52.3241L69.827 51.3931V49.5311L75.9718 51.0207V52.3241L89.7509 54Z" fill="#FF6C19"/>
<path d="M22.5303 35.2568V31.1342C22.5303 30.2323 23.1339 29.4419 24.004 29.2046L32.2936 26.9439C33.5659 26.5969 34.8198 27.5546 34.8198 28.8734V33.2472C34.8198 34.1703 34.1881 34.9735 33.291 35.1909L25.0015 37.2005C23.7427 37.5057 22.5303 36.5521 22.5303 35.2568Z" fill="white"/>
<path d="M36.1235 31.9227V27.4003C36.1235 26.503 36.7211 25.7155 37.5853 25.4741L48.7855 22.3446L53.1155 23.6017C53.97 23.8498 54.5578 24.6326 54.5578 25.5224V30.4813C54.5578 31.8136 53.2797 32.7734 52.0002 32.402L48.7855 31.4687L38.5816 33.8696C37.3262 34.165 36.1235 33.2124 36.1235 31.9227Z" fill="white"/>
<path d="M61.6338 21.8677V17.3452C61.6338 16.4479 61.0362 15.6605 60.172 15.419L48.9718 12.2896L44.6419 13.5466C43.7873 13.7947 43.1995 14.5775 43.1995 15.4673V20.4262C43.1995 21.7585 44.4776 22.7184 45.7571 22.3469L48.9718 21.4136L59.1757 23.8145C60.4311 24.1099 61.6338 23.1574 61.6338 21.8677Z" fill="white"/>
<path d="M61.2617 42.3502V37.8278C61.2617 36.9305 60.6641 36.143 59.7999 35.9016L48.5998 32.7721L44.2698 34.0292C43.4153 34.2773 42.8274 35.0601 42.8274 35.9499V40.9088C42.8274 42.2411 44.1056 43.2009 45.385 42.8295L48.5998 41.8961L58.8036 44.2971C60.0591 44.5924 61.2617 43.6399 61.2617 42.3502Z" fill="white"/>
<path d="M21.5996 25.6356V21.6355C21.5996 20.7688 22.1579 20.0007 22.9823 19.7331L24.9408 19.0975C26.2329 18.6782 27.5582 19.6415 27.5582 20.9999V25.0635C27.5582 25.9521 26.9719 26.7342 26.1189 26.9833L24.1603 27.5553C22.8802 27.9292 21.5996 26.9692 21.5996 25.6356Z" fill="white"/>
<path d="M75.9717 35.3182V31.3181C75.9717 30.4514 75.4134 29.6833 74.589 29.4158L72.6305 28.7802C71.3384 28.3609 70.0131 29.3241 70.0131 30.6825V34.7461C70.0131 35.6348 70.5994 36.4168 71.4524 36.6659L73.411 37.238C74.6911 37.6119 75.9717 36.6518 75.9717 35.3182Z" fill="white"/>
<path d="M21.5996 45.3732V41.3731C21.5996 40.5064 22.1579 39.7383 22.9823 39.4708L24.9408 38.8352C26.2329 38.4159 27.5582 39.3791 27.5582 40.7376V44.8012C27.5582 45.6898 26.9719 46.4719 26.1189 46.721L24.1603 47.293C22.8802 47.6669 21.5996 46.7069 21.5996 45.3732Z" fill="white"/>
<path d="M29.4209 23.2922V19.3529C29.4209 18.4749 29.9935 17.6995 30.8327 17.4413L38.9361 14.948C40.2222 14.5522 41.5242 15.5139 41.5242 16.8595V18.6205V21.1729C41.5242 22.0825 40.9104 22.8776 40.0303 23.1078L31.927 25.2271C30.6595 25.5586 29.4209 24.6023 29.4209 23.2922Z" fill="white"/>
<path d="M74.854 24.987V21.0374C74.854 20.1552 74.2761 19.3773 73.4315 19.1226L65.7006 16.791C64.4167 16.4038 63.1231 17.3649 63.1231 18.7058V23.0236C63.1231 23.9385 63.744 24.7368 64.6308 24.962L72.3617 26.9254C73.6258 27.2465 74.854 26.2912 74.854 24.987Z" fill="white"/>
<path d="M68.3374 33.5718V29.6161C68.3374 28.7276 67.7513 27.9457 66.8985 27.6964L58.7952 25.3277C57.515 24.9535 56.2341 25.9136 56.2341 27.2474V31.5771C56.2341 32.4976 56.8623 33.2992 57.756 33.5192L65.8594 35.5138C67.1199 35.8241 68.3374 34.87 68.3374 33.5718Z" fill="white"/>
<path d="M29.4209 43.2545V39.3907C29.4209 38.4594 30.0637 37.6513 30.9712 37.4419L39.0745 35.5719C40.3277 35.2827 41.5242 36.2345 41.5242 37.5207V38.9169V41.2598C41.5242 42.1803 40.896 42.9818 40.0023 43.2018L31.8989 45.1965C30.6384 45.5068 29.4209 44.5526 29.4209 43.2545Z" fill="white"/>
<path d="M75.0405 45.107V41.1998C75.0405 40.293 74.4304 39.4996 73.554 39.2668L65.6368 37.1638C64.3676 36.8267 63.1234 37.7836 63.1234 39.0968V43.1277C63.1234 44.0454 63.748 44.8454 64.6383 45.068L72.5555 47.0473C73.8177 47.3628 75.0405 46.4081 75.0405 45.107Z" fill="white"/>
</svg>
