<svg width="24" height="24" viewBox="0 0 24 24" fill="none" xmlns="http://www.w3.org/2000/svg">
<path d="M7.92768 7.85236C6.58627 8.99217 6.09469 11.0709 7.25297 12.7385C8.33686 14.2991 9.70219 15.6641 11.2624 16.7475C12.9301 17.9056 15.0087 17.4138 16.1484 16.0724L16.1611 16.0782C17.6168 16.7526 19.163 17.2148 20.75 17.4503V20.75L20.7486 20.75L20.7451 20.75C10.7769 20.7641 3.23934 13.1389 3.25001 3.25449V3.25H6.54921L6.54943 3.25146C6.785 4.83831 7.24701 6.38317 7.92142 7.83885L7.92768 7.85236ZM20.7486 23.25H22C22.6904 23.25 23.25 22.6903 23.25 22V16.3721C23.25 15.7527 22.7963 15.2266 22.1835 15.1357L21.1158 14.9772C19.7654 14.7768 18.4507 14.3837 17.2119 13.8098L16.2708 13.3739C15.7255 13.1213 15.0775 13.2925 14.7282 13.7816L14.3022 14.378C13.9288 14.9008 13.216 15.0605 12.6883 14.694C11.3729 13.7806 10.2201 12.628 9.30628 11.3124C8.93977 10.7847 9.09944 10.0717 9.62229 9.69833L10.2185 9.27258C10.7076 8.92326 10.8789 8.27526 10.6262 7.72988L10.1898 6.78791C9.61593 5.54925 9.22278 4.23468 9.02233 2.88436L8.8638 1.81645C8.77283 1.2037 8.24681 0.75 7.62735 0.75H2.00001C1.30966 0.75 0.750013 1.30964 0.750013 2V3.25179C0.737863 14.5098 9.38779 23.2661 20.7486 23.25Z" fill="#FF8845"/>
</svg>
