<svg width="18" height="24" viewBox="0 0 18 24" fill="none" xmlns="http://www.w3.org/2000/svg">
<path d="M9 23.2498C7.42117 21.9031 5.95773 20.4267 4.625 18.836C2.625 16.4473 0.250001 12.8898 0.250001 9.49976C0.248228 5.95919 2.38031 2.7665 5.65134 1.4115C8.92236 0.0565131 12.6876 0.806308 15.19 3.31101C16.8356 4.94927 17.7574 7.17774 17.75 9.49976C17.75 12.8898 15.375 16.4473 13.375 18.836C12.0423 20.4267 10.5788 21.9031 9 23.2498ZM9 3.24976C5.54994 3.25389 2.75413 6.04969 2.75 9.49976C2.75 10.9573 3.40875 13.481 6.54375 17.2323C7.31642 18.1548 8.13627 19.0368 9 19.8748C9.86381 19.0378 10.6841 18.1571 11.4575 17.236C14.5913 13.4798 15.25 10.956 15.25 9.49976C15.2459 6.04969 12.4501 3.25389 9 3.24976ZM9 13.2498C6.92893 13.2498 5.25 11.5708 5.25 9.49976C5.25 7.42869 6.92893 5.74976 9 5.74976C11.0711 5.74976 12.75 7.42869 12.75 9.49976C12.75 10.4943 12.3549 11.4481 11.6517 12.1514C10.9484 12.8547 9.99456 13.2498 9 13.2498Z" fill="#FF8845"/>
</svg>
