<svg width="34" height="34" viewBox="0 0 34 34" fill="none" xmlns="http://www.w3.org/2000/svg">
<path d="M21.0558 2.7224C21.1004 2.55044 21.2114 2.40317 21.3644 2.31283C21.5174 2.22249 21.6999 2.19642 21.8721 2.24033C24.2508 2.85987 26.421 4.10289 28.159 5.84113C29.8969 7.57937 31.1396 9.74986 31.7587 12.1286C31.8027 12.3006 31.7769 12.4829 31.6868 12.6359C31.5968 12.7888 31.45 12.8999 31.2783 12.945C31.2237 12.9606 31.1672 12.9685 31.1104 12.9685C30.9618 12.968 30.8176 12.9183 30.7002 12.8271C30.5829 12.7359 30.4992 12.6084 30.462 12.4646C29.9012 10.3181 28.7786 8.35967 27.2098 6.79089C25.6411 5.22211 23.6827 4.09957 21.5361 3.53872C21.3645 3.49368 21.2176 3.38256 21.1276 3.22961C21.0376 3.07667 21.0118 2.89433 21.0558 2.7224ZM20.1924 8.91372C22.7119 9.59064 24.4101 11.2888 25.087 13.8083C25.1242 13.9522 25.2079 14.0797 25.3252 14.1709C25.4426 14.262 25.5868 14.3118 25.7354 14.3122C25.7922 14.3122 25.8487 14.3043 25.9033 14.2887C26.0752 14.2426 26.2217 14.1303 26.3108 13.9763C26.3999 13.8223 26.4243 13.6393 26.3787 13.4674C25.5724 10.4439 23.5484 8.42829 20.5283 7.61533C20.3605 7.58287 20.1866 7.61562 20.042 7.70692C19.8975 7.79821 19.7932 7.94117 19.7503 8.10669C19.7075 8.2722 19.7294 8.44782 19.8115 8.59776C19.8937 8.74771 20.0299 8.8607 20.1924 8.91372ZM33.1159 25.4956C32.8371 27.6102 31.7978 29.551 30.1921 30.955C28.5865 32.3591 26.5245 33.1304 24.3916 33.1247C11.4244 33.1247 0.875995 22.5763 0.875995 9.60912C0.871576 7.47706 1.64342 5.41629 3.04738 3.81173C4.45133 2.20717 6.39137 1.16855 8.50513 0.889857C8.93818 0.837211 9.37661 0.926473 9.75459 1.14424C10.1326 1.36201 10.4297 1.69652 10.6014 2.09755L14.1455 10.0156C14.278 10.3226 14.332 10.6578 14.3027 10.9909C14.2734 11.324 14.1616 11.6446 13.9776 11.9237C13.9624 11.9456 13.9473 11.9674 13.9305 11.9876L10.3696 16.222C10.3137 16.3148 10.2817 16.42 10.2764 16.5281C10.2711 16.6363 10.2928 16.7441 10.3394 16.8418C11.6562 19.5377 14.4798 22.3395 17.2076 23.6563C17.3061 23.702 17.4143 23.7227 17.5228 23.7166C17.6312 23.7104 17.7364 23.6776 17.8291 23.6211L22.0065 20.0736L22.0703 20.0249C22.3498 19.8402 22.671 19.7281 23.0048 19.6988C23.3385 19.6695 23.6743 19.7238 23.9818 19.8569L31.9133 23.4111C32.3103 23.5838 32.6411 23.8798 32.8568 24.2553C33.0725 24.6307 33.1616 25.0656 33.1109 25.4956H33.1159ZM31.3774 24.6356L23.4426 21.0814C23.3462 21.0409 23.2416 21.0239 23.1373 21.0318C23.0331 21.0397 22.9322 21.0722 22.8429 21.1267L18.6807 24.6742L18.6185 24.7213C18.3291 24.9145 17.9946 25.0295 17.6476 25.0551C17.3006 25.0807 16.9528 25.0161 16.6382 24.8674C13.6147 23.4077 10.6064 20.4196 9.14678 17.4314C8.99665 17.1192 8.92954 16.7736 8.9519 16.4279C8.97426 16.0822 9.08534 15.7481 9.27443 15.4578C9.28955 15.4343 9.30635 15.4141 9.32314 15.3923L12.8824 11.1595C12.9358 11.0687 12.967 10.9668 12.9738 10.8617C12.9805 10.7567 12.9624 10.6516 12.921 10.5548L9.37017 2.63673C9.32014 2.51398 9.23491 2.40878 9.12522 2.33435C9.01553 2.25993 8.88628 2.21962 8.75373 2.21849C8.72688 2.21682 8.69995 2.21682 8.6731 2.21849C6.88299 2.45568 5.24054 3.33674 4.05283 4.69694C2.86513 6.05714 2.21349 7.80336 2.21975 9.60912C2.21975 21.8339 12.1669 31.781 24.3916 31.781C26.1974 31.7872 27.9436 31.1356 29.3038 29.9479C30.664 28.7602 31.545 27.1178 31.7822 25.3276C31.7977 25.1835 31.7662 25.0382 31.6923 24.9135C31.6184 24.7888 31.5062 24.6913 31.3724 24.6356H31.3774Z" fill="white"/>
</svg>
