<svg width="32" height="32" viewBox="0 0 32 32" fill="none" xmlns="http://www.w3.org/2000/svg">
<path d="M16.0003 0.166626C7.26033 0.166626 0.166992 7.25996 0.166992 16C0.166992 24.74 7.26033 31.8333 16.0003 31.8333C24.7403 31.8333 31.8337 24.74 31.8337 16C31.8337 7.25996 24.7403 0.166626 16.0003 0.166626ZM16.0003 28.6666C9.01783 28.6666 3.33366 22.9825 3.33366 16C3.33366 9.01746 9.01783 3.33329 16.0003 3.33329C22.9828 3.33329 28.667 9.01746 28.667 16C28.667 22.9825 22.9828 28.6666 16.0003 28.6666ZM16.4912 14.6383C13.6887 13.9258 12.7862 13.15 12.7862 11.9941C12.7862 10.6641 14.037 9.72996 16.1112 9.72996C18.2962 9.72996 19.1195 10.775 19.1828 12.3266H21.8903C21.8112 10.205 20.5128 8.25746 17.9478 7.62413V4.91663H14.2587V7.59246C11.8678 8.09913 9.95199 9.65079 9.95199 12.0416C9.95199 14.8758 12.3112 16.3008 15.747 17.1241C18.8345 17.8525 19.452 18.945 19.452 20.085C19.452 20.9241 18.8345 22.2858 16.127 22.2858C13.5937 22.2858 12.5962 21.1458 12.4537 19.6891H9.73032C9.88866 22.3808 11.8837 23.9008 14.2587 24.3916V27.0833H17.9637V24.4391C20.3703 23.98 22.2703 22.6025 22.2862 20.0533C22.2703 16.57 19.2778 15.3666 16.4912 14.6383V14.6383Z" fill="#FF6C19"/>
</svg>
