<svg width="32" height="32" viewBox="0 0 32 32" fill="none" xmlns="http://www.w3.org/2000/svg">
<path d="M16.0003 0.166626C7.26033 0.166626 0.166992 7.25996 0.166992 16C0.166992 24.74 7.26033 31.8333 16.0003 31.8333C24.7403 31.8333 31.8337 24.74 31.8337 16C31.8337 7.25996 24.7403 0.166626 16.0003 0.166626ZM16.0003 28.6666C9.01783 28.6666 3.33366 22.9825 3.33366 16C3.33366 9.01746 9.01783 3.33329 16.0003 3.33329C22.9828 3.33329 28.667 9.01746 28.667 16C28.667 22.9825 22.9828 28.6666 16.0003 28.6666ZM23.2678 9.00163L12.8337 19.4358L8.73282 15.3508L6.50033 17.5833L12.8337 23.9166L25.5003 11.25L23.2678 9.00163Z" fill="#FF6C19"/>
</svg>
