<svg width="36" height="30" viewBox="0 0 36 30" fill="none" xmlns="http://www.w3.org/2000/svg">
<path d="M13.2497 19.75C9.02217 19.75 0.583008 21.8717 0.583008 26.0833V29.25H25.9163V26.0833C25.9163 21.8717 17.4772 19.75 13.2497 19.75ZM3.74967 26.0833C4.09801 24.9433 8.99051 22.9167 13.2497 22.9167C17.5247 22.9167 22.433 24.9592 22.7497 26.0833H3.74967Z" fill="#FF6C19"/>
<path d="M6.50435 10.25H6.91602C6.91602 13.7492 9.75018 16.5834 13.2493 16.5834C16.7485 16.5834 19.5827 13.7492 19.5827 10.25H19.9943C20.4218 10.25 20.7702 9.90171 20.7702 9.47421V9.44254C20.7702 9.01504 20.4218 8.66671 19.9943 8.66671H19.5827C19.5827 6.32337 18.3002 4.31254 16.416 3.20421V4.70837C16.416 5.15171 16.0677 5.50004 15.6243 5.50004C15.181 5.50004 14.8327 5.15171 14.8327 4.70837V2.55504C14.326 2.42837 13.8035 2.33337 13.2493 2.33337C12.6952 2.33337 12.1727 2.42837 11.666 2.55504V4.70837C11.666 5.15171 11.3177 5.50004 10.8743 5.50004C10.431 5.50004 10.0827 5.15171 10.0827 4.70837V3.20421C8.19852 4.31254 6.91602 6.32337 6.91602 8.66671H6.50435C6.07685 8.66671 5.72852 9.01504 5.72852 9.44254V9.49004C5.72852 9.90171 6.07685 10.25 6.50435 10.25ZM16.416 10.25C16.416 11.9917 14.991 13.4167 13.2493 13.4167C11.5077 13.4167 10.0827 11.9917 10.0827 10.25H16.416Z" fill="#FF6C19"/>
<path d="M33.8014 5.86417L35.2739 4.55L34.0864 2.49167L32.2023 3.10917C31.9806 2.935 31.7273 2.7925 31.4581 2.68167L31.0623 0.75H28.6873L28.2914 2.68167C28.0223 2.7925 27.7689 2.935 27.5314 3.10917L25.6631 2.49167L24.4756 4.55L25.9481 5.86417C25.9164 6.13333 25.9164 6.41833 25.9481 6.6875L24.4756 8.03333L25.6631 10.0917L27.5631 9.49C27.7689 9.64833 28.0064 9.775 28.2439 9.88583L28.6873 11.8333H31.0623L31.4898 9.90167C31.7431 9.79083 31.9648 9.66417 32.1864 9.50583L34.0706 10.1075L35.2581 8.04917L33.7856 6.70333C33.8331 6.4025 33.8173 6.13333 33.8014 5.86417ZM29.8748 8.27083C28.7823 8.27083 27.8956 7.38417 27.8956 6.29167C27.8956 5.19917 28.7823 4.3125 29.8748 4.3125C30.9673 4.3125 31.8539 5.19917 31.8539 6.29167C31.8539 7.38417 30.9673 8.27083 29.8748 8.27083Z" fill="#FF6C19"/>
<path d="M29.7162 13.0842L28.3704 13.5275C28.212 13.4009 28.0379 13.3059 27.8479 13.2267L27.5629 11.8334H25.8687L25.5837 13.2109C25.3937 13.29 25.2037 13.4009 25.0454 13.5117L23.7154 13.0684L22.8604 14.5409L23.9054 15.475C23.8895 15.6809 23.8895 15.8709 23.9054 16.0609L22.8604 17.0267L23.7154 18.4992L25.077 18.0717C25.2354 18.1825 25.3937 18.2775 25.5679 18.3567L25.8529 19.75H27.547L27.8479 18.3725C28.022 18.2934 28.1962 18.1984 28.3545 18.0875L29.7004 18.515L30.5554 17.0425L29.5104 16.0767C29.5262 15.8709 29.5262 15.6809 29.5104 15.4909L30.5554 14.5567L29.7162 13.0842ZM26.7079 17.2009C25.932 17.2009 25.2987 16.5675 25.2987 15.7917C25.2987 15.0159 25.932 14.3825 26.7079 14.3825C27.4837 14.3825 28.117 15.0159 28.117 15.7917C28.117 16.5675 27.4837 17.2009 26.7079 17.2009Z" fill="#FF6C19"/>
</svg>
