<svg width="36" height="26" viewBox="0 0 36 26" fill="none" xmlns="http://www.w3.org/2000/svg">
<path d="M30.6663 6.66671H25.9163V0.333374H3.74967C2.00801 0.333374 0.583008 1.75837 0.583008 3.50004V20.9167H3.74967C3.74967 23.545 5.87134 25.6667 8.49967 25.6667C11.128 25.6667 13.2497 23.545 13.2497 20.9167H22.7497C22.7497 23.545 24.8713 25.6667 27.4997 25.6667C30.128 25.6667 32.2497 23.545 32.2497 20.9167H35.4163V13L30.6663 6.66671ZM29.8747 9.04171L32.978 13H25.9163V9.04171H29.8747ZM8.49967 22.5C7.62884 22.5 6.91634 21.7875 6.91634 20.9167C6.91634 20.0459 7.62884 19.3334 8.49967 19.3334C9.37051 19.3334 10.083 20.0459 10.083 20.9167C10.083 21.7875 9.37051 22.5 8.49967 22.5ZM12.0147 17.75C11.1438 16.7842 9.90884 16.1667 8.49967 16.1667C7.09051 16.1667 5.85551 16.7842 4.98467 17.75H3.74967V3.50004H22.7497V17.75H12.0147ZM27.4997 22.5C26.6288 22.5 25.9163 21.7875 25.9163 20.9167C25.9163 20.0459 26.6288 19.3334 27.4997 19.3334C28.3705 19.3334 29.083 20.0459 29.083 20.9167C29.083 21.7875 28.3705 22.5 27.4997 22.5Z" fill="#FF6C19"/>
</svg>
