<svg width="36" height="33" viewBox="0 0 36 33" fill="none" xmlns="http://www.w3.org/2000/svg">
<path d="M13.2497 32.25H27.4997C28.8138 32.25 29.938 31.4584 30.413 30.3184L35.1947 19.1559C35.3372 18.7917 35.4163 18.4117 35.4163 18V14.8334C35.4163 13.0917 33.9913 11.6667 32.2497 11.6667H22.2588L23.763 4.43087L23.8105 3.92421C23.8105 3.27504 23.5413 2.67337 23.1138 2.24587L21.4355 0.583374L11.0013 11.0175C10.4313 11.5875 10.083 12.3792 10.083 13.25V29.0834C10.083 30.825 11.508 32.25 13.2497 32.25ZM13.2497 13.25L20.1213 6.37837L17.9997 14.8334H32.2497V18L27.4997 29.0834H13.2497V13.25ZM0.583008 13.25H6.91634V32.25H0.583008V13.25Z" fill="#FF6C19"/>
</svg>
