<svg width="32" height="33" viewBox="0 0 32 33" fill="none" xmlns="http://www.w3.org/2000/svg">
<path d="M16.7916 10.6667H14.4166V20.1667L21.9374 24.6792L23.1249 22.7317L16.7916 18.9792V10.6667ZM24.4502 0.865845L31.7446 6.95376L29.7179 9.38418L22.4188 3.29943L24.4502 0.865845ZM7.54967 0.865845L9.5795 3.29784L2.2835 9.38418L0.256836 6.95218L7.54967 0.865845ZM15.9999 4.33334C8.13075 4.33334 1.74992 10.7142 1.74992 18.5833C1.74992 26.4525 8.13075 32.8333 15.9999 32.8333C23.8691 32.8333 30.2499 26.4525 30.2499 18.5833C30.2499 10.7142 23.8691 4.33334 15.9999 4.33334ZM15.9999 29.6667C9.88825 29.6667 4.91659 24.695 4.91659 18.5833C4.91659 12.4717 9.88825 7.50001 15.9999 7.50001C22.1116 7.50001 27.0833 12.4717 27.0833 18.5833C27.0833 24.695 22.1116 29.6667 15.9999 29.6667Z" fill="#FF6C19"/>
</svg>
