<svg width="213" height="119" viewBox="0 0 213 119" fill="none" xmlns="http://www.w3.org/2000/svg">
<path d="M26.6941 89.0947L20.1652 87.4021L14.6348 85.7091L20.7115 87.1389L26.6941 89.0947Z" fill="white" stroke="white"/>
<path d="M31.849 68.0371L25.9918 64.6927L21.0982 61.6097L26.588 64.5819L31.849 68.0371Z" fill="white" stroke="white"/>
<path d="M183.475 66.251L189.404 63.035L194.363 60.0593L188.81 62.9113L183.475 66.251Z" fill="white" stroke="white"/>
<path d="M186.248 87.6586L192.79 86.0184L198.334 84.3698L192.246 85.7508L186.248 87.6586Z" fill="white" stroke="white"/>
<mask id="path-5-inside-1_6706_14739" fill="white">
<path d="M176.472 40.0449L183.845 32.333L175.804 39.7036L168.09 48.0841L176.472 40.0449Z"/>
</mask>
<path d="M176.472 40.0449L183.845 32.333L175.804 39.7036L168.09 48.0841L176.472 40.0449Z" fill="white"/>
<path d="M183.845 32.333L183.169 31.5958L184.568 33.024L183.845 32.333ZM176.472 40.0449L177.195 40.7359L177.18 40.7516L177.165 40.7666L176.472 40.0449ZM168.09 48.0841L168.782 48.8058L167.354 47.4069L168.09 48.0841ZM175.804 39.7036L175.068 39.0264L175.097 38.9952L175.128 38.9665L175.804 39.7036ZM184.568 33.024L177.195 40.7359L175.75 39.3539L183.122 31.642L184.568 33.024ZM177.165 40.7666L168.782 48.8058L167.398 47.3624L175.78 39.3232L177.165 40.7666ZM167.354 47.4069L175.068 39.0264L176.54 40.3809L168.826 48.7614L167.354 47.4069ZM175.128 38.9665L183.169 31.5958L184.52 33.0702L176.479 40.4408L175.128 38.9665Z" fill="white" mask="url(#path-5-inside-1_6706_14739)"/>
<mask id="path-7-inside-2_6706_14739" fill="white">
<path d="M155.781 24.0429L160.961 14.7158L155.048 23.882L149.707 33.9424L155.781 24.0429Z"/>
</mask>
<path d="M155.781 24.0429L160.961 14.7158L155.048 23.882L149.707 33.9424L155.781 24.0429Z" fill="white"/>
<path d="M160.961 14.7158L160.121 14.1737L161.835 15.2013L160.961 14.7158ZM155.781 24.0429L156.655 24.5284L156.645 24.5474L156.634 24.5659L155.781 24.0429ZM149.707 33.9424L150.56 34.4653L148.824 33.4735L149.707 33.9424ZM155.048 23.882L154.165 23.4132L154.185 23.3756L154.208 23.34L155.048 23.882ZM161.835 15.2013L156.655 24.5284L154.907 23.5574L160.087 14.2303L161.835 15.2013ZM156.634 24.5659L150.56 34.4653L148.855 33.4194L154.929 23.52L156.634 24.5659ZM148.824 33.4735L154.165 23.4132L155.931 24.3509L150.591 34.4113L148.824 33.4735ZM154.208 23.34L160.121 14.1737L161.801 15.2579L155.888 24.4241L154.208 23.34Z" fill="white" mask="url(#path-7-inside-2_6706_14739)"/>
<mask id="path-9-inside-3_6706_14739" fill="white">
<path d="M131.448 16.0513L134.121 5.72266L130.698 16.0796L128.053 27.1583L131.448 16.0513Z"/>
</mask>
<path d="M131.448 16.0513L134.121 5.72266L130.698 16.0796L128.053 27.1583L131.448 16.0513Z" fill="white"/>
<path d="M134.121 5.72266L133.172 5.40884L135.089 5.97319L134.121 5.72266ZM131.448 16.0513L132.416 16.3018L132.411 16.3228L132.404 16.3436L131.448 16.0513ZM128.053 27.1583L129.01 27.4506L127.081 26.9261L128.053 27.1583ZM130.698 16.0796L129.725 15.8474L129.735 15.8061L129.749 15.7658L130.698 16.0796ZM135.089 5.97319L132.416 16.3018L130.48 15.8007L133.153 5.47212L135.089 5.97319ZM132.404 16.3436L129.01 27.4506L127.097 26.866L130.492 15.759L132.404 16.3436ZM127.081 26.9261L129.725 15.8474L131.671 16.3118L129.026 27.3905L127.081 26.9261ZM129.749 15.7658L133.172 5.40884L135.071 6.03647L131.648 16.3934L129.749 15.7658Z" fill="white" mask="url(#path-9-inside-3_6706_14739)"/>
<mask id="path-11-inside-4_6706_14739" fill="white">
<path d="M105.784 10.666L105.536 0L105.07 10.898L105.55 22.2779L105.784 10.666Z"/>
</mask>
<path d="M105.784 10.666L105.536 0L105.07 10.898L105.55 22.2779L105.784 10.666Z" fill="white"/>
<path d="M105.536 0L104.537 -0.0427445L106.536 -0.023214L105.536 0ZM105.784 10.666L106.784 10.6428L106.784 10.6645L106.784 10.6862L105.784 10.666ZM105.55 22.2779L106.549 22.2981L104.55 22.32L105.55 22.2779ZM105.07 10.898L104.071 10.9401L104.069 10.8976L104.071 10.8552L105.07 10.898ZM106.536 -0.023214L106.784 10.6428L104.784 10.6892L104.536 0.023214L106.536 -0.023214ZM106.784 10.6862L106.549 22.2981L104.55 22.2577L104.784 10.6458L106.784 10.6862ZM104.55 22.32L104.071 10.9401L106.069 10.8559L106.549 22.2358L104.55 22.32ZM104.071 10.8552L104.537 -0.0427445L106.535 0.0427445L106.069 10.9407L104.071 10.8552Z" fill="white" mask="url(#path-11-inside-4_6706_14739)"/>
<mask id="path-13-inside-5_6706_14739" fill="white">
<path d="M81.0352 15.1734L78.1387 4.90527L80.4016 15.5759L83.7006 26.4777L81.0352 15.1734Z"/>
</mask>
<path d="M81.0352 15.1734L78.1387 4.90527L80.4016 15.5759L83.7006 26.4777L81.0352 15.1734Z" fill="white"/>
<path d="M78.1387 4.90527L77.1604 5.11273L79.1011 4.63378L78.1387 4.90527ZM81.0352 15.1734L81.9976 14.9019L82.0035 14.9228L82.0085 14.9439L81.0352 15.1734ZM83.7006 26.4777L84.6739 26.2482L82.7434 26.7673L83.7006 26.4777ZM80.4016 15.5759L79.4444 15.8655L79.4321 15.8249L79.4233 15.7834L80.4016 15.5759ZM79.1011 4.63378L81.9976 14.9019L80.0728 15.4449L77.1762 5.17677L79.1011 4.63378ZM82.0085 14.9439L84.6739 26.2482L82.7272 26.7072L80.0619 15.4029L82.0085 14.9439ZM82.7434 26.7673L79.4444 15.8655L81.3587 15.2863L84.6577 26.1881L82.7434 26.7673ZM79.4233 15.7834L77.1604 5.11273L79.1169 4.69782L81.3798 15.3684L79.4233 15.7834Z" fill="white" mask="url(#path-13-inside-5_6706_14739)"/>
<mask id="path-15-inside-6_6706_14739" fill="white">
<path d="M58.0116 25.3122L52.6475 16.0898L57.4982 25.8599L63.41 35.5955L58.0116 25.3122Z"/>
</mask>
<path d="M58.0116 25.3122L52.6475 16.0898L57.4982 25.8599L63.41 35.5955L58.0116 25.3122Z" fill="black"/>
<path d="M52.6475 16.0898L51.7518 16.5345L53.5119 15.5871L52.6475 16.0898ZM58.0116 25.3122L58.876 24.8094L58.8869 24.8281L58.897 24.8474L58.0116 25.3122ZM63.41 35.5955L64.2954 35.1307L62.5553 36.1146L63.41 35.5955ZM57.4982 25.8599L56.6435 26.3789L56.6214 26.3426L56.6025 26.3046L57.4982 25.8599ZM53.5119 15.5871L58.876 24.8094L57.1472 25.8149L51.783 16.5926L53.5119 15.5871ZM58.897 24.8474L64.2954 35.1307L62.5246 36.0603L57.1262 25.777L58.897 24.8474ZM62.5553 36.1146L56.6435 26.3789L58.353 25.3408L64.2648 35.0765L62.5553 36.1146ZM56.6025 26.3046L51.7518 16.5345L53.5431 15.6451L58.3939 25.4152L56.6025 26.3046Z" fill="white" mask="url(#path-15-inside-6_6706_14739)"/>
<mask id="path-17-inside-7_6706_14739" fill="white">
<path d="M35.8818 39.6144L27.7959 32.6543L35.5759 40.2999L44.3473 47.5658L35.8818 39.6144Z"/>
</mask>
<path d="M35.8818 39.6144L27.7959 32.6543L35.5759 40.2999L44.3473 47.5658L35.8818 39.6144Z" fill="black"/>
<path d="M27.7959 32.6543L27.095 33.3675L28.4483 31.8964L27.7959 32.6543ZM35.8818 39.6144L36.5342 38.8565L36.5506 38.8706L36.5665 38.8855L35.8818 39.6144ZM44.3473 47.5658L45.032 46.837L43.7094 48.3359L44.3473 47.5658ZM35.5759 40.2999L34.938 41.0699L34.9053 41.0429L34.875 41.0131L35.5759 40.2999ZM28.4483 31.8964L36.5342 38.8565L35.2295 40.3723L27.1435 33.4122L28.4483 31.8964ZM36.5665 38.8855L45.032 46.837L43.6627 48.2947L35.1972 40.3432L36.5665 38.8855ZM43.7094 48.3359L34.938 41.0699L36.2138 39.5298L44.9853 46.7957L43.7094 48.3359ZM34.875 41.0131L27.095 33.3675L28.4968 31.9411L36.2768 39.5866L34.875 41.0131Z" fill="white" mask="url(#path-17-inside-7_6706_14739)"/>
<path d="M197.022 118.54H15.124L49.8685 114.453V111.183L75.2116 105.869L76.8466 107.504V112.818L79.2992 111.183V104.643L107.504 98.9199L118.131 100.964L120.175 103.008V112.818L122.628 111.183V101.781L150.832 108.73V114.862L153.285 112.818V108.73L166.774 112V114.862L197.022 118.54Z" fill="white"/>
<path d="M49.459 80.435V66.52C49.459 65.6181 50.0626 64.8278 50.9327 64.5905L73.9108 58.3237C75.1831 57.9768 76.4371 58.9345 76.4371 60.2533V74.8646C76.4371 75.7877 75.8054 76.5908 74.9083 76.8083L51.9302 82.3787C50.6714 82.6839 49.459 81.7303 49.459 80.435Z" fill="white"/>
<path d="M79.2988 73.0949V58.335C79.2988 57.4377 79.8964 56.6502 80.7606 56.4088L107.094 49.0508L118.324 52.3109C119.178 52.5589 119.766 53.3417 119.766 54.2315V70.0956C119.766 71.4279 118.488 72.3877 117.208 72.0163L107.094 69.08L81.7569 75.0417C80.5015 75.3371 79.2988 74.3846 79.2988 73.0949Z" fill="white"/>
<path d="M135.299 51.0226V36.2627C135.299 35.3654 134.701 34.578 133.837 34.3365L107.503 26.9785L96.2741 30.2386C95.4195 30.4867 94.8317 31.2695 94.8317 32.1593V48.0233C94.8317 49.3556 96.1098 50.3155 97.3893 49.944L107.503 47.0077L132.841 52.9695C134.096 53.2649 135.299 52.3123 135.299 51.0226Z" fill="white"/>
<path d="M134.481 95.9855V81.2256C134.481 80.3283 133.884 79.5409 133.02 79.2994L106.686 71.9414L95.4567 75.2015C94.6021 75.4496 94.0143 76.2324 94.0143 77.1222V92.9862C94.0143 94.3185 95.2924 95.2784 96.5719 94.9069L106.686 91.9706L132.023 97.9324C133.279 98.2278 134.481 97.2752 134.481 95.9855Z" fill="white"/>
<path d="M47.416 59.4629V45.7561C47.416 44.8893 47.9743 44.1213 48.7987 43.8537L57.879 40.907C59.1711 40.4877 60.4963 41.4509 60.4963 42.8093V56.8109C60.4963 57.6995 59.91 58.4815 59.057 58.7307L49.9767 61.3827C48.6966 61.7566 47.416 60.7966 47.416 59.4629Z" fill="white"/>
<path d="M166.773 80.7188V67.0119C166.773 66.1452 166.215 65.3771 165.391 65.1096L156.31 62.1629C155.018 61.7435 153.693 62.7068 153.693 64.0652V78.0667C153.693 78.9553 154.279 79.7374 155.132 79.9865L164.213 82.6386C165.493 83.0125 166.773 82.0524 166.773 80.7188Z" fill="white"/>
<path d="M47.416 102.792V89.0852C47.416 88.2184 47.9743 87.4504 48.7987 87.1828L57.879 84.2361C59.1711 83.8168 60.4963 84.78 60.4963 86.1384V100.14C60.4963 101.029 59.91 101.811 59.057 102.06L49.9767 104.712C48.6966 105.086 47.416 104.126 47.416 102.792Z" fill="white"/>
<path d="M64.584 54.2279V40.7187C64.584 39.8407 65.1566 39.0654 65.9958 38.8072L88.5652 31.8628C89.8513 31.467 91.1533 32.4287 91.1533 33.7743V40.8766V48.3251C91.1533 49.2348 90.5394 50.0299 89.6594 50.26L67.09 56.1628C65.8226 56.4943 64.584 55.538 64.584 54.2279Z" fill="white"/>
<path d="M164.32 57.925V44.4055C164.32 43.5234 163.742 42.7454 162.898 42.4907L141.146 35.9307C139.862 35.5435 138.568 36.5045 138.568 37.8455V52.4007C138.568 53.3156 139.189 54.1139 140.076 54.3391L161.828 59.8634C163.092 60.1845 164.32 59.2292 164.32 57.925Z" fill="white"/>
<path d="M150.015 76.7471V63.2216C150.015 62.3331 149.429 61.5512 148.576 61.3019L126.006 54.7047C124.726 54.3305 123.445 55.2905 123.445 56.6244V71.1916C123.445 72.112 124.074 72.9136 124.967 73.1336L147.537 78.6891C148.797 78.9994 150.015 78.0453 150.015 76.7471Z" fill="white"/>
<path d="M64.584 98.0027V84.5691C64.584 83.6378 65.2268 82.8297 66.1343 82.6203L88.7036 77.412C89.9568 77.1228 91.1533 78.0746 91.1533 79.3608V85.4306V92.4472C91.1533 93.3676 90.5251 94.1692 89.6314 94.3892L67.062 99.9447C65.8015 100.255 64.584 99.3008 64.584 98.0027Z" fill="white"/>
<path d="M164.729 102.081V88.6042C164.729 87.6974 164.118 86.904 163.242 86.6712L141.081 80.7848C139.812 80.4477 138.568 81.4045 138.568 82.7178V96.541C138.568 97.4588 139.193 98.2587 140.083 98.4813L162.243 104.021C163.506 104.337 164.729 103.382 164.729 102.081Z" fill="white"/>
</svg>
